<mxfile>
    <diagram id="z3XswlLWCpY23xo-eLrF" name="Page-1">
        <mxGraphModel dx="728" dy="680" grid="1" gridSize="10" guides="1" tooltips="1" connect="1" arrows="1" fold="1" page="1" pageScale="1" pageWidth="850" pageHeight="1100" math="0" shadow="0">
            <root>
                <mxCell id="0"/>
                <mxCell id="1" parent="0"/>
                <mxCell id="FrRC0isX2T48UGR8ABqO-22" value="Products" style="swimlane;fontStyle=1;align=center;verticalAlign=top;childLayout=stackLayout;horizontal=1;startSize=26;horizontalStack=0;resizeParent=1;resizeParentMax=0;resizeLast=0;collapsible=1;marginBottom=0;" parent="1" vertex="1">
                    <mxGeometry x="110" y="180" width="160" height="86" as="geometry"/>
                </mxCell>
                <mxCell id="FrRC0isX2T48UGR8ABqO-23" value="- sweaters: String [ ]&#10;- shirts: String [ ]&#10;- pants: String [ ]&#10;- shorts: String [ ]&#10;- hats: String [ ]&#10;- masks: String [ ]" style="text;strokeColor=none;fillColor=none;align=left;verticalAlign=top;spacingLeft=4;spacingRight=4;overflow=hidden;rotatable=0;points=[[0,0.5],[1,0.5]];portConstraint=eastwest;" parent="FrRC0isX2T48UGR8ABqO-22" vertex="1">
                    <mxGeometry y="26" width="160" height="26" as="geometry"/>
                </mxCell>
                <mxCell id="FrRC0isX2T48UGR8ABqO-24" value="" style="line;strokeWidth=1;fillColor=none;align=left;verticalAlign=middle;spacingTop=-1;spacingLeft=3;spacingRight=3;rotatable=0;labelPosition=right;points=[];portConstraint=eastwest;" parent="FrRC0isX2T48UGR8ABqO-22" vertex="1">
                    <mxGeometry y="52" width="160" height="8" as="geometry"/>
                </mxCell>
                <mxCell id="FrRC0isX2T48UGR8ABqO-25" value="+ method(type): type" style="text;strokeColor=none;fillColor=none;align=left;verticalAlign=top;spacingLeft=4;spacingRight=4;overflow=hidden;rotatable=0;points=[[0,0.5],[1,0.5]];portConstraint=eastwest;" parent="FrRC0isX2T48UGR8ABqO-22" vertex="1">
                    <mxGeometry y="60" width="160" height="26" as="geometry"/>
                </mxCell>
                <mxCell id="FrRC0isX2T48UGR8ABqO-26" value="Client" style="swimlane;fontStyle=1;align=center;verticalAlign=top;childLayout=stackLayout;horizontal=1;startSize=26;horizontalStack=0;resizeParent=1;resizeParentMax=0;resizeLast=0;collapsible=1;marginBottom=0;" parent="1" vertex="1">
                    <mxGeometry x="350" y="170" width="160" height="86" as="geometry"/>
                </mxCell>
                <mxCell id="FrRC0isX2T48UGR8ABqO-27" value="- fName: String&#10;- lName: String &#10;-mName: String&#10;- address: String&#10;- pNumber: String" style="text;strokeColor=none;fillColor=none;align=left;verticalAlign=top;spacingLeft=4;spacingRight=4;overflow=hidden;rotatable=0;points=[[0,0.5],[1,0.5]];portConstraint=eastwest;" parent="FrRC0isX2T48UGR8ABqO-26" vertex="1">
                    <mxGeometry y="26" width="160" height="26" as="geometry"/>
                </mxCell>
                <mxCell id="FrRC0isX2T48UGR8ABqO-28" value="" style="line;strokeWidth=1;fillColor=none;align=left;verticalAlign=middle;spacingTop=-1;spacingLeft=3;spacingRight=3;rotatable=0;labelPosition=right;points=[];portConstraint=eastwest;" parent="FrRC0isX2T48UGR8ABqO-26" vertex="1">
                    <mxGeometry y="52" width="160" height="8" as="geometry"/>
                </mxCell>
                <mxCell id="FrRC0isX2T48UGR8ABqO-29" value="+ method(type): type" style="text;strokeColor=none;fillColor=none;align=left;verticalAlign=top;spacingLeft=4;spacingRight=4;overflow=hidden;rotatable=0;points=[[0,0.5],[1,0.5]];portConstraint=eastwest;" parent="FrRC0isX2T48UGR8ABqO-26" vertex="1">
                    <mxGeometry y="60" width="160" height="26" as="geometry"/>
                </mxCell>
                <mxCell id="FrRC0isX2T48UGR8ABqO-30" value="Company" style="swimlane;fontStyle=1;align=center;verticalAlign=top;childLayout=stackLayout;horizontal=1;startSize=26;horizontalStack=0;resizeParent=1;resizeParentMax=0;resizeLast=0;collapsible=1;marginBottom=0;" parent="1" vertex="1">
                    <mxGeometry x="350" y="290" width="160" height="86" as="geometry"/>
                </mxCell>
                <mxCell id="FrRC0isX2T48UGR8ABqO-31" value="- existing: boolean" style="text;strokeColor=none;fillColor=none;align=left;verticalAlign=top;spacingLeft=4;spacingRight=4;overflow=hidden;rotatable=0;points=[[0,0.5],[1,0.5]];portConstraint=eastwest;" parent="FrRC0isX2T48UGR8ABqO-30" vertex="1">
                    <mxGeometry y="26" width="160" height="26" as="geometry"/>
                </mxCell>
                <mxCell id="FrRC0isX2T48UGR8ABqO-32" value="" style="line;strokeWidth=1;fillColor=none;align=left;verticalAlign=middle;spacingTop=-1;spacingLeft=3;spacingRight=3;rotatable=0;labelPosition=right;points=[];portConstraint=eastwest;" parent="FrRC0isX2T48UGR8ABqO-30" vertex="1">
                    <mxGeometry y="52" width="160" height="8" as="geometry"/>
                </mxCell>
                <mxCell id="FrRC0isX2T48UGR8ABqO-33" value="+ method(type): type" style="text;strokeColor=none;fillColor=none;align=left;verticalAlign=top;spacingLeft=4;spacingRight=4;overflow=hidden;rotatable=0;points=[[0,0.5],[1,0.5]];portConstraint=eastwest;" parent="FrRC0isX2T48UGR8ABqO-30" vertex="1">
                    <mxGeometry y="60" width="160" height="26" as="geometry"/>
                </mxCell>
                <mxCell id="FrRC0isX2T48UGR8ABqO-34" value="Personal" style="swimlane;fontStyle=1;align=center;verticalAlign=top;childLayout=stackLayout;horizontal=1;startSize=26;horizontalStack=0;resizeParent=1;resizeParentMax=0;resizeLast=0;collapsible=1;marginBottom=0;" parent="1" vertex="1">
                    <mxGeometry x="130" y="350" width="160" height="86" as="geometry"/>
                </mxCell>
                <mxCell id="FrRC0isX2T48UGR8ABqO-35" value=" - existing: boolean" style="text;strokeColor=none;fillColor=none;align=left;verticalAlign=top;spacingLeft=4;spacingRight=4;overflow=hidden;rotatable=0;points=[[0,0.5],[1,0.5]];portConstraint=eastwest;" parent="FrRC0isX2T48UGR8ABqO-34" vertex="1">
                    <mxGeometry y="26" width="160" height="26" as="geometry"/>
                </mxCell>
                <mxCell id="FrRC0isX2T48UGR8ABqO-36" value="" style="line;strokeWidth=1;fillColor=none;align=left;verticalAlign=middle;spacingTop=-1;spacingLeft=3;spacingRight=3;rotatable=0;labelPosition=right;points=[];portConstraint=eastwest;" parent="FrRC0isX2T48UGR8ABqO-34" vertex="1">
                    <mxGeometry y="52" width="160" height="8" as="geometry"/>
                </mxCell>
                <mxCell id="FrRC0isX2T48UGR8ABqO-37" value="+ method(type): type" style="text;strokeColor=none;fillColor=none;align=left;verticalAlign=top;spacingLeft=4;spacingRight=4;overflow=hidden;rotatable=0;points=[[0,0.5],[1,0.5]];portConstraint=eastwest;" parent="FrRC0isX2T48UGR8ABqO-34" vertex="1">
                    <mxGeometry y="60" width="160" height="26" as="geometry"/>
                </mxCell>
                <mxCell id="FrRC0isX2T48UGR8ABqO-38" value="Order" style="swimlane;fontStyle=1;align=center;verticalAlign=top;childLayout=stackLayout;horizontal=1;startSize=26;horizontalStack=0;resizeParent=1;resizeParentMax=0;resizeLast=0;collapsible=1;marginBottom=0;" parent="1" vertex="1">
                    <mxGeometry x="550" y="330" width="160" height="86" as="geometry"/>
                </mxCell>
                <mxCell id="FrRC0isX2T48UGR8ABqO-39" value="- num: int&#10;- product: String &#10;- type: String&#10;- size: String&#10;- client: Client" style="text;strokeColor=none;fillColor=none;align=left;verticalAlign=top;spacingLeft=4;spacingRight=4;overflow=hidden;rotatable=0;points=[[0,0.5],[1,0.5]];portConstraint=eastwest;" parent="FrRC0isX2T48UGR8ABqO-38" vertex="1">
                    <mxGeometry y="26" width="160" height="26" as="geometry"/>
                </mxCell>
                <mxCell id="FrRC0isX2T48UGR8ABqO-40" value="" style="line;strokeWidth=1;fillColor=none;align=left;verticalAlign=middle;spacingTop=-1;spacingLeft=3;spacingRight=3;rotatable=0;labelPosition=right;points=[];portConstraint=eastwest;" parent="FrRC0isX2T48UGR8ABqO-38" vertex="1">
                    <mxGeometry y="52" width="160" height="8" as="geometry"/>
                </mxCell>
                <mxCell id="FrRC0isX2T48UGR8ABqO-41" value="+ leadTime(double): Products inventory" style="text;strokeColor=none;fillColor=none;align=left;verticalAlign=top;spacingLeft=4;spacingRight=4;overflow=hidden;rotatable=0;points=[[0,0.5],[1,0.5]];portConstraint=eastwest;" parent="FrRC0isX2T48UGR8ABqO-38" vertex="1">
                    <mxGeometry y="60" width="160" height="26" as="geometry"/>
                </mxCell>
            </root>
        </mxGraphModel>
    </diagram>
    <diagram id="wftdomCxegUQZQMBHBxp" name="Page-2">
        &#xa;        &#xa;        &#xa;&#xa;&#xa;
        <mxGraphModel dx="728" dy="680" grid="1" gridSize="10" guides="1" tooltips="1" connect="1" arrows="1" fold="1" page="1" pageScale="1" pageWidth="850" pageHeight="1100" math="0" shadow="0">
            &#xa;            &#xa;            &#xa;&#xa;&#xa;
            <root>
                &#xa;                &#xa;                &#xa;&#xa;&#xa;
                <mxCell id="MRYJUEJTdeakwbMpgUm5-0"/>
                &#xa;                &#xa;                &#xa;&#xa;&#xa;
                <mxCell id="MRYJUEJTdeakwbMpgUm5-1" parent="MRYJUEJTdeakwbMpgUm5-0"/>
                &#xa;                &#xa;                &#xa;&#xa;&#xa;
                <mxCell id="w4hvDUAFsWrSL29OxZu8-0" value="Sweater" style="swimlane;fontStyle=1;align=center;verticalAlign=top;childLayout=stackLayout;horizontal=1;startSize=26;horizontalStack=0;resizeParent=1;resizeParentMax=0;resizeLast=0;collapsible=1;marginBottom=0;" parent="MRYJUEJTdeakwbMpgUm5-1" vertex="1">
                    &#xa;                    &#xa;                    &#xa;&#xa;&#xa;
                    <mxGeometry x="90" y="80" width="160" height="86" as="geometry"/>
                    &#xa;                    &#xa;                    &#xa;&#xa;&#xa;
                </mxCell>
                &#xa;                &#xa;                &#xa;&#xa;&#xa;
                <mxCell id="w4hvDUAFsWrSL29OxZu8-1" value="- size: char&#10;- type: String&#10;- colour: String&#10;- sex: char" style="text;strokeColor=none;fillColor=none;align=left;verticalAlign=top;spacingLeft=4;spacingRight=4;overflow=hidden;rotatable=0;points=[[0,0.5],[1,0.5]];portConstraint=eastwest;" parent="w4hvDUAFsWrSL29OxZu8-0" vertex="1">
                    &#xa;                    &#xa;                    &#xa;&#xa;&#xa;
                    <mxGeometry y="26" width="160" height="26" as="geometry"/>
                    &#xa;                    &#xa;                    &#xa;&#xa;&#xa;
                </mxCell>
                &#xa;                &#xa;                &#xa;&#xa;&#xa;
                <mxCell id="w4hvDUAFsWrSL29OxZu8-2" value="" style="line;strokeWidth=1;fillColor=none;align=left;verticalAlign=middle;spacingTop=-1;spacingLeft=3;spacingRight=3;rotatable=0;labelPosition=right;points=[];portConstraint=eastwest;" parent="w4hvDUAFsWrSL29OxZu8-0" vertex="1">
                    &#xa;                    &#xa;                    &#xa;&#xa;&#xa;
                    <mxGeometry y="52" width="160" height="8" as="geometry"/>
                    &#xa;                    &#xa;                    &#xa;&#xa;&#xa;
                </mxCell>
                &#xa;                &#xa;                &#xa;&#xa;&#xa;
                <mxCell id="w4hvDUAFsWrSL29OxZu8-3" value="+ method(type): type" style="text;strokeColor=none;fillColor=none;align=left;verticalAlign=top;spacingLeft=4;spacingRight=4;overflow=hidden;rotatable=0;points=[[0,0.5],[1,0.5]];portConstraint=eastwest;" parent="w4hvDUAFsWrSL29OxZu8-0" vertex="1">
                    &#xa;                    &#xa;                    &#xa;&#xa;&#xa;
                    <mxGeometry y="60" width="160" height="26" as="geometry"/>
                    &#xa;                    &#xa;                    &#xa;&#xa;&#xa;
                </mxCell>
                &#xa;                &#xa;                &#xa;&#xa;&#xa;
                <mxCell id="w4hvDUAFsWrSL29OxZu8-4" value="Shirt" style="swimlane;fontStyle=1;align=center;verticalAlign=top;childLayout=stackLayout;horizontal=1;startSize=26;horizontalStack=0;resizeParent=1;resizeParentMax=0;resizeLast=0;collapsible=1;marginBottom=0;" parent="MRYJUEJTdeakwbMpgUm5-1" vertex="1">
                    &#xa;                    &#xa;                    &#xa;&#xa;&#xa;
                    <mxGeometry x="320" y="80" width="160" height="86" as="geometry"/>
                    &#xa;                    &#xa;                    &#xa;&#xa;&#xa;
                </mxCell>
                &#xa;                &#xa;                &#xa;&#xa;&#xa;
                <mxCell id="w4hvDUAFsWrSL29OxZu8-5" value="- size: char&#10;- type: String&#10;- colour: String&#10;- sex: char" style="text;strokeColor=none;fillColor=none;align=left;verticalAlign=top;spacingLeft=4;spacingRight=4;overflow=hidden;rotatable=0;points=[[0,0.5],[1,0.5]];portConstraint=eastwest;" parent="w4hvDUAFsWrSL29OxZu8-4" vertex="1">
                    &#xa;                    &#xa;                    &#xa;&#xa;&#xa;
                    <mxGeometry y="26" width="160" height="26" as="geometry"/>
                    &#xa;                    &#xa;                    &#xa;&#xa;&#xa;
                </mxCell>
                &#xa;                &#xa;                &#xa;&#xa;&#xa;
                <mxCell id="w4hvDUAFsWrSL29OxZu8-6" value="" style="line;strokeWidth=1;fillColor=none;align=left;verticalAlign=middle;spacingTop=-1;spacingLeft=3;spacingRight=3;rotatable=0;labelPosition=right;points=[];portConstraint=eastwest;" parent="w4hvDUAFsWrSL29OxZu8-4" vertex="1">
                    &#xa;                    &#xa;                    &#xa;&#xa;&#xa;
                    <mxGeometry y="52" width="160" height="8" as="geometry"/>
                    &#xa;                    &#xa;                    &#xa;&#xa;&#xa;
                </mxCell>
                &#xa;                &#xa;                &#xa;&#xa;&#xa;
                <mxCell id="w4hvDUAFsWrSL29OxZu8-7" value="+ method(type): type" style="text;strokeColor=none;fillColor=none;align=left;verticalAlign=top;spacingLeft=4;spacingRight=4;overflow=hidden;rotatable=0;points=[[0,0.5],[1,0.5]];portConstraint=eastwest;" parent="w4hvDUAFsWrSL29OxZu8-4" vertex="1">
                    &#xa;                    &#xa;                    &#xa;&#xa;&#xa;
                    <mxGeometry y="60" width="160" height="26" as="geometry"/>
                    &#xa;                    &#xa;                    &#xa;&#xa;&#xa;
                </mxCell>
                &#xa;                &#xa;                &#xa;&#xa;&#xa;
                <mxCell id="w4hvDUAFsWrSL29OxZu8-8" value="Pant" style="swimlane;fontStyle=1;align=center;verticalAlign=top;childLayout=stackLayout;horizontal=1;startSize=26;horizontalStack=0;resizeParent=1;resizeParentMax=0;resizeLast=0;collapsible=1;marginBottom=0;" parent="MRYJUEJTdeakwbMpgUm5-1" vertex="1">
                    &#xa;                    &#xa;                    &#xa;&#xa;&#xa;
                    <mxGeometry x="90" y="230" width="160" height="86" as="geometry"/>
                    &#xa;                    &#xa;                    &#xa;&#xa;&#xa;
                </mxCell>
                &#xa;                &#xa;                &#xa;&#xa;&#xa;
                <mxCell id="w4hvDUAFsWrSL29OxZu8-9" value="- size: char&#10;- type: String&#10;- colour: String&#10;- sex: char" style="text;strokeColor=none;fillColor=none;align=left;verticalAlign=top;spacingLeft=4;spacingRight=4;overflow=hidden;rotatable=0;points=[[0,0.5],[1,0.5]];portConstraint=eastwest;" parent="w4hvDUAFsWrSL29OxZu8-8" vertex="1">
                    &#xa;                    &#xa;                    &#xa;&#xa;&#xa;
                    <mxGeometry y="26" width="160" height="26" as="geometry"/>
                    &#xa;                    &#xa;                    &#xa;&#xa;&#xa;
                </mxCell>
                &#xa;                &#xa;                &#xa;&#xa;&#xa;
                <mxCell id="w4hvDUAFsWrSL29OxZu8-10" value="" style="line;strokeWidth=1;fillColor=none;align=left;verticalAlign=middle;spacingTop=-1;spacingLeft=3;spacingRight=3;rotatable=0;labelPosition=right;points=[];portConstraint=eastwest;" parent="w4hvDUAFsWrSL29OxZu8-8" vertex="1">
                    &#xa;                    &#xa;                    &#xa;&#xa;&#xa;
                    <mxGeometry y="52" width="160" height="8" as="geometry"/>
                    &#xa;                    &#xa;                    &#xa;&#xa;&#xa;
                </mxCell>
                &#xa;                &#xa;                &#xa;&#xa;&#xa;
                <mxCell id="w4hvDUAFsWrSL29OxZu8-11" value="+ method(type): type" style="text;strokeColor=none;fillColor=none;align=left;verticalAlign=top;spacingLeft=4;spacingRight=4;overflow=hidden;rotatable=0;points=[[0,0.5],[1,0.5]];portConstraint=eastwest;" parent="w4hvDUAFsWrSL29OxZu8-8" vertex="1">
                    &#xa;                    &#xa;                    &#xa;&#xa;&#xa;
                    <mxGeometry y="60" width="160" height="26" as="geometry"/>
                    &#xa;                    &#xa;                    &#xa;&#xa;&#xa;
                </mxCell>
                &#xa;                &#xa;                &#xa;&#xa;&#xa;
                <mxCell id="w4hvDUAFsWrSL29OxZu8-12" value="Short" style="swimlane;fontStyle=1;align=center;verticalAlign=top;childLayout=stackLayout;horizontal=1;startSize=26;horizontalStack=0;resizeParent=1;resizeParentMax=0;resizeLast=0;collapsible=1;marginBottom=0;" parent="MRYJUEJTdeakwbMpgUm5-1" vertex="1">
                    &#xa;                    &#xa;                    &#xa;&#xa;&#xa;
                    <mxGeometry x="320" y="230" width="160" height="86" as="geometry"/>
                    &#xa;                    &#xa;                    &#xa;&#xa;&#xa;
                </mxCell>
                &#xa;                &#xa;                &#xa;&#xa;&#xa;
                <mxCell id="w4hvDUAFsWrSL29OxZu8-13" value="- size: char&#10;- type: String&#10;- colour: String&#10;- sex: char" style="text;strokeColor=none;fillColor=none;align=left;verticalAlign=top;spacingLeft=4;spacingRight=4;overflow=hidden;rotatable=0;points=[[0,0.5],[1,0.5]];portConstraint=eastwest;" parent="w4hvDUAFsWrSL29OxZu8-12" vertex="1">
                    &#xa;                    &#xa;                    &#xa;&#xa;&#xa;
                    <mxGeometry y="26" width="160" height="26" as="geometry"/>
                    &#xa;                    &#xa;                    &#xa;&#xa;&#xa;
                </mxCell>
                &#xa;                &#xa;                &#xa;&#xa;&#xa;
                <mxCell id="w4hvDUAFsWrSL29OxZu8-14" value="" style="line;strokeWidth=1;fillColor=none;align=left;verticalAlign=middle;spacingTop=-1;spacingLeft=3;spacingRight=3;rotatable=0;labelPosition=right;points=[];portConstraint=eastwest;" parent="w4hvDUAFsWrSL29OxZu8-12" vertex="1">
                    &#xa;                    &#xa;                    &#xa;&#xa;&#xa;
                    <mxGeometry y="52" width="160" height="8" as="geometry"/>
                    &#xa;                    &#xa;                    &#xa;&#xa;&#xa;
                </mxCell>
                &#xa;                &#xa;                &#xa;&#xa;&#xa;
                <mxCell id="w4hvDUAFsWrSL29OxZu8-15" value="+ method(type): type" style="text;strokeColor=none;fillColor=none;align=left;verticalAlign=top;spacingLeft=4;spacingRight=4;overflow=hidden;rotatable=0;points=[[0,0.5],[1,0.5]];portConstraint=eastwest;" parent="w4hvDUAFsWrSL29OxZu8-12" vertex="1">
                    &#xa;                    &#xa;                    &#xa;&#xa;&#xa;
                    <mxGeometry y="60" width="160" height="26" as="geometry"/>
                    &#xa;                    &#xa;                    &#xa;&#xa;&#xa;
                </mxCell>
                &#xa;                &#xa;                &#xa;&#xa;&#xa;
                <mxCell id="w4hvDUAFsWrSL29OxZu8-16" value="Headwear" style="swimlane;fontStyle=1;align=center;verticalAlign=top;childLayout=stackLayout;horizontal=1;startSize=26;horizontalStack=0;resizeParent=1;resizeParentMax=0;resizeLast=0;collapsible=1;marginBottom=0;" parent="MRYJUEJTdeakwbMpgUm5-1" vertex="1">
                    &#xa;                    &#xa;                    &#xa;&#xa;&#xa;
                    <mxGeometry x="90" y="370" width="160" height="86" as="geometry"/>
                    &#xa;                    &#xa;                    &#xa;&#xa;&#xa;
                </mxCell>
                &#xa;                &#xa;                &#xa;&#xa;&#xa;
                <mxCell id="w4hvDUAFsWrSL29OxZu8-17" value="- size: char&#10;- type: String&#10;- colour: String&#10;- sex: char" style="text;strokeColor=none;fillColor=none;align=left;verticalAlign=top;spacingLeft=4;spacingRight=4;overflow=hidden;rotatable=0;points=[[0,0.5],[1,0.5]];portConstraint=eastwest;" parent="w4hvDUAFsWrSL29OxZu8-16" vertex="1">
                    &#xa;                    &#xa;                    &#xa;&#xa;&#xa;
                    <mxGeometry y="26" width="160" height="26" as="geometry"/>
                    &#xa;                    &#xa;                    &#xa;&#xa;&#xa;
                </mxCell>
                &#xa;                &#xa;                &#xa;&#xa;&#xa;
                <mxCell id="w4hvDUAFsWrSL29OxZu8-18" value="" style="line;strokeWidth=1;fillColor=none;align=left;verticalAlign=middle;spacingTop=-1;spacingLeft=3;spacingRight=3;rotatable=0;labelPosition=right;points=[];portConstraint=eastwest;" parent="w4hvDUAFsWrSL29OxZu8-16" vertex="1">
                    &#xa;                    &#xa;                    &#xa;&#xa;&#xa;
                    <mxGeometry y="52" width="160" height="8" as="geometry"/>
                    &#xa;                    &#xa;                    &#xa;&#xa;&#xa;
                </mxCell>
                &#xa;                &#xa;                &#xa;&#xa;&#xa;
                <mxCell id="w4hvDUAFsWrSL29OxZu8-19" value="+ method(type): type" style="text;strokeColor=none;fillColor=none;align=left;verticalAlign=top;spacingLeft=4;spacingRight=4;overflow=hidden;rotatable=0;points=[[0,0.5],[1,0.5]];portConstraint=eastwest;" parent="w4hvDUAFsWrSL29OxZu8-16" vertex="1">
                    &#xa;                    &#xa;                    &#xa;&#xa;&#xa;
                    <mxGeometry y="60" width="160" height="26" as="geometry"/>
                    &#xa;                    &#xa;                    &#xa;&#xa;&#xa;
                </mxCell>
                &#xa;                &#xa;                &#xa;&#xa;&#xa;
                <mxCell id="w4hvDUAFsWrSL29OxZu8-20" value="Mask" style="swimlane;fontStyle=1;align=center;verticalAlign=top;childLayout=stackLayout;horizontal=1;startSize=26;horizontalStack=0;resizeParent=1;resizeParentMax=0;resizeLast=0;collapsible=1;marginBottom=0;" parent="MRYJUEJTdeakwbMpgUm5-1" vertex="1">
                    &#xa;                    &#xa;                    &#xa;&#xa;&#xa;
                    <mxGeometry x="320" y="370" width="160" height="86" as="geometry"/>
                    &#xa;                    &#xa;                    &#xa;&#xa;&#xa;
                </mxCell>
                &#xa;                &#xa;                &#xa;&#xa;&#xa;
                <mxCell id="w4hvDUAFsWrSL29OxZu8-21" value="- size: char&#10;- type: String&#10;- colour: String&#10;- sex: char" style="text;strokeColor=none;fillColor=none;align=left;verticalAlign=top;spacingLeft=4;spacingRight=4;overflow=hidden;rotatable=0;points=[[0,0.5],[1,0.5]];portConstraint=eastwest;" parent="w4hvDUAFsWrSL29OxZu8-20" vertex="1">
                    &#xa;                    &#xa;                    &#xa;&#xa;&#xa;
                    <mxGeometry y="26" width="160" height="26" as="geometry"/>
                    &#xa;                    &#xa;                    &#xa;&#xa;&#xa;
                </mxCell>
                &#xa;                &#xa;                &#xa;&#xa;&#xa;
                <mxCell id="w4hvDUAFsWrSL29OxZu8-22" value="" style="line;strokeWidth=1;fillColor=none;align=left;verticalAlign=middle;spacingTop=-1;spacingLeft=3;spacingRight=3;rotatable=0;labelPosition=right;points=[];portConstraint=eastwest;" parent="w4hvDUAFsWrSL29OxZu8-20" vertex="1">
                    &#xa;                    &#xa;                    &#xa;&#xa;&#xa;
                    <mxGeometry y="52" width="160" height="8" as="geometry"/>
                    &#xa;                    &#xa;                    &#xa;&#xa;&#xa;
                </mxCell>
                &#xa;                &#xa;                &#xa;&#xa;&#xa;
                <mxCell id="w4hvDUAFsWrSL29OxZu8-23" value="+ method(type): type" style="text;strokeColor=none;fillColor=none;align=left;verticalAlign=top;spacingLeft=4;spacingRight=4;overflow=hidden;rotatable=0;points=[[0,0.5],[1,0.5]];portConstraint=eastwest;" parent="w4hvDUAFsWrSL29OxZu8-20" vertex="1">
                    &#xa;                    &#xa;                    &#xa;&#xa;&#xa;
                    <mxGeometry y="60" width="160" height="26" as="geometry"/>
                    &#xa;                    &#xa;                    &#xa;&#xa;&#xa;
                </mxCell>
                &#xa;                &#xa;                &#xa;&#xa;&#xa;
            </root>
            &#xa;            &#xa;            &#xa;&#xa;&#xa;
        </mxGraphModel>
        &#xa;        &#xa;        &#xa;&#xa;&#xa;
    </diagram>
    <diagram id="AKa6K7lbf1u2NzV__cc4" name="Page-3">
        &#xa;        &#xa;        &#xa;&#xa;&#xa;
        <mxGraphModel dx="728" dy="680" grid="1" gridSize="10" guides="1" tooltips="1" connect="1" arrows="1" fold="1" page="1" pageScale="1" pageWidth="850" pageHeight="1100" math="0" shadow="0">
            &#xa;            &#xa;            &#xa;&#xa;&#xa;
            <root>
                &#xa;                &#xa;                &#xa;&#xa;&#xa;
                <mxCell id="Er8krfrYXAJm4qdIAXMV-0"/>
                &#xa;                &#xa;                &#xa;&#xa;&#xa;
                <mxCell id="Er8krfrYXAJm4qdIAXMV-1" parent="Er8krfrYXAJm4qdIAXMV-0"/>
                &#xa;                &#xa;                &#xa;&#xa;&#xa;
                <mxCell id="Er8krfrYXAJm4qdIAXMV-2" value="SQLServer" style="shape=folder;fontStyle=1;tabWidth=110;tabHeight=30;tabPosition=left;html=1;boundedLbl=1;labelInHeader=1;container=1;collapsible=0;recursiveResize=0;" parent="Er8krfrYXAJm4qdIAXMV-1" vertex="1">
                    &#xa;                    &#xa;                    &#xa;&#xa;&#xa;
                    <mxGeometry x="120" y="310" width="290" height="150" as="geometry"/>
                    &#xa;                    &#xa;                    &#xa;&#xa;&#xa;
                </mxCell>
                &#xa;                &#xa;                &#xa;&#xa;&#xa;
                <mxCell id="Er8krfrYXAJm4qdIAXMV-3" value="Inventory" style="html=1;" parent="Er8krfrYXAJm4qdIAXMV-2" vertex="1">
                    &#xa;                    &#xa;                    &#xa;&#xa;&#xa;
                    <mxGeometry width="110" height="30" relative="1" as="geometry">
                        &#xa;                        &#xa;                        &#xa;&#xa;&#xa;
                        <mxPoint x="20" y="50" as="offset"/>
                        &#xa;                        &#xa;                        &#xa;&#xa;&#xa;
                    </mxGeometry>
                    &#xa;                    &#xa;                    &#xa;&#xa;&#xa;
                </mxCell>
                &#xa;                &#xa;                &#xa;&#xa;&#xa;
                <mxCell id="Er8krfrYXAJm4qdIAXMV-16" value="OrderHistory" style="html=1;" parent="Er8krfrYXAJm4qdIAXMV-2" vertex="1">
                    &#xa;                    &#xa;                    &#xa;&#xa;&#xa;
                    <mxGeometry width="110" height="30" relative="1" as="geometry">
                        &#xa;                        &#xa;                        &#xa;&#xa;&#xa;
                        <mxPoint x="150" y="60" as="offset"/>
                        &#xa;                        &#xa;                        &#xa;&#xa;&#xa;
                    </mxGeometry>
                    &#xa;                    &#xa;                    &#xa;&#xa;&#xa;
                </mxCell>
                &#xa;                &#xa;                &#xa;&#xa;&#xa;
                <mxCell id="WMc9OuHirwesZjXnelt_-4" value="Regulars" style="html=1;" vertex="1" parent="Er8krfrYXAJm4qdIAXMV-2">
                    &#xa;                    &#xa;                    &#xa;&#xa;&#xa;
                    <mxGeometry width="110" height="30" relative="1" as="geometry">
                        &#xa;                        &#xa;                        &#xa;&#xa;&#xa;
                        <mxPoint x="30" y="90" as="offset"/>
                        &#xa;                        &#xa;                        &#xa;&#xa;&#xa;
                    </mxGeometry>
                    &#xa;                    &#xa;                    &#xa;&#xa;&#xa;
                </mxCell>
                &#xa;                &#xa;                &#xa;&#xa;&#xa;
            </root>
            &#xa;            &#xa;            &#xa;&#xa;&#xa;
        </mxGraphModel>
        &#xa;        &#xa;        &#xa;&#xa;&#xa;
    </diagram>
    <diagram id="eSRwoZc0oyTMrpAx9XS1" name="Page-4">
        <mxGraphModel dx="715" dy="538" grid="1" gridSize="10" guides="1" tooltips="1" connect="1" arrows="1" fold="1" page="1" pageScale="1" pageWidth="850" pageHeight="1100" math="0" shadow="0">
            <root>
                <mxCell id="oynfDBJYEfXgy_UC3kl--0"/>
                <mxCell id="oynfDBJYEfXgy_UC3kl--1" parent="oynfDBJYEfXgy_UC3kl--0"/>
                <mxCell id="oynfDBJYEfXgy_UC3kl--2" value="Customer" style="shape=umlActor;verticalLabelPosition=bottom;verticalAlign=top;html=1;" parent="oynfDBJYEfXgy_UC3kl--1" vertex="1">
                    <mxGeometry x="120" y="225" width="30" height="60" as="geometry"/>
                </mxCell>
                <mxCell id="oynfDBJYEfXgy_UC3kl--5" value="Admin" style="shape=umlActor;verticalLabelPosition=bottom;verticalAlign=top;html=1;" parent="oynfDBJYEfXgy_UC3kl--1" vertex="1">
                    <mxGeometry x="800" y="240" width="30" height="60" as="geometry"/>
                </mxCell>
                <mxCell id="oynfDBJYEfXgy_UC3kl--12" value="Recuring/OneTime" style="ellipse;whiteSpace=wrap;html=1;" parent="oynfDBJYEfXgy_UC3kl--1" vertex="1">
                    <mxGeometry x="150" y="540" width="130" height="40" as="geometry"/>
                </mxCell>
                <mxCell id="XHgv0kynWW9dPsfrW4lC-9" value="Process Order" style="ellipse;whiteSpace=wrap;html=1;" parent="oynfDBJYEfXgy_UC3kl--1" vertex="1">
                    <mxGeometry x="320" y="750" width="122.5" height="55" as="geometry"/>
                </mxCell>
                <mxCell id="XHgv0kynWW9dPsfrW4lC-14" value="Login" style="ellipse;whiteSpace=wrap;html=1;" parent="oynfDBJYEfXgy_UC3kl--1" vertex="1">
                    <mxGeometry x="500" y="40" width="80" height="30" as="geometry"/>
                </mxCell>
                <mxCell id="XHgv0kynWW9dPsfrW4lC-15" value="Sign-Up" style="ellipse;whiteSpace=wrap;html=1;" parent="oynfDBJYEfXgy_UC3kl--1" vertex="1">
                    <mxGeometry x="620" y="40" width="80" height="30" as="geometry"/>
                </mxCell>
                <mxCell id="XHgv0kynWW9dPsfrW4lC-16" value="Verify email" style="ellipse;whiteSpace=wrap;html=1;" parent="oynfDBJYEfXgy_UC3kl--1" vertex="1">
                    <mxGeometry x="720" y="110" width="80" height="30" as="geometry"/>
                </mxCell>
                <mxCell id="XHgv0kynWW9dPsfrW4lC-17" value="Verify Password" style="ellipse;whiteSpace=wrap;html=1;" parent="oynfDBJYEfXgy_UC3kl--1" vertex="1">
                    <mxGeometry x="480" y="130" width="80" height="30" as="geometry"/>
                </mxCell>
                <mxCell id="XHgv0kynWW9dPsfrW4lC-18" value="Error" style="ellipse;whiteSpace=wrap;html=1;" parent="oynfDBJYEfXgy_UC3kl--1" vertex="1">
                    <mxGeometry x="580" y="110" width="80" height="30" as="geometry"/>
                </mxCell>
                <mxCell id="XHgv0kynWW9dPsfrW4lC-20" value="&amp;lt;&amp;lt;include&amp;gt;&amp;gt;" style="html=1;verticalAlign=bottom;labelBackgroundColor=none;endArrow=open;endFill=0;dashed=1;exitX=0.5;exitY=1;exitDx=0;exitDy=0;entryX=0.5;entryY=0;entryDx=0;entryDy=0;" parent="oynfDBJYEfXgy_UC3kl--1" source="XHgv0kynWW9dPsfrW4lC-14" target="XHgv0kynWW9dPsfrW4lC-17" edge="1">
                    <mxGeometry width="160" relative="1" as="geometry">
                        <mxPoint x="480" y="150" as="sourcePoint"/>
                        <mxPoint x="640" y="150" as="targetPoint"/>
                    </mxGeometry>
                </mxCell>
                <mxCell id="XHgv0kynWW9dPsfrW4lC-21" value="&amp;lt;&amp;lt;include&amp;gt;&amp;gt;" style="html=1;verticalAlign=bottom;labelBackgroundColor=none;endArrow=open;endFill=0;dashed=1;exitX=0.5;exitY=1;exitDx=0;exitDy=0;entryX=0.5;entryY=0;entryDx=0;entryDy=0;" parent="oynfDBJYEfXgy_UC3kl--1" source="XHgv0kynWW9dPsfrW4lC-15" target="XHgv0kynWW9dPsfrW4lC-16" edge="1">
                    <mxGeometry width="160" relative="1" as="geometry">
                        <mxPoint x="540" y="60" as="sourcePoint"/>
                        <mxPoint x="510" y="90" as="targetPoint"/>
                    </mxGeometry>
                </mxCell>
                <mxCell id="XHgv0kynWW9dPsfrW4lC-22" value="&amp;lt;&amp;lt;extend&amp;gt;&amp;gt;" style="html=1;verticalAlign=bottom;labelBackgroundColor=none;endArrow=open;endFill=0;dashed=1;entryX=0.5;entryY=0;entryDx=0;entryDy=0;exitX=0.5;exitY=0;exitDx=0;exitDy=0;" parent="oynfDBJYEfXgy_UC3kl--1" source="XHgv0kynWW9dPsfrW4lC-15" target="XHgv0kynWW9dPsfrW4lC-31" edge="1">
                    <mxGeometry width="160" relative="1" as="geometry">
                        <mxPoint x="390" y="140" as="sourcePoint"/>
                        <mxPoint x="550" y="140" as="targetPoint"/>
                        <Array as="points">
                            <mxPoint x="490" y="20"/>
                        </Array>
                    </mxGeometry>
                </mxCell>
                <mxCell id="XHgv0kynWW9dPsfrW4lC-23" value="&amp;lt;&amp;lt;extend&amp;gt;&amp;gt;" style="html=1;verticalAlign=bottom;labelBackgroundColor=none;endArrow=open;endFill=0;dashed=1;entryX=0.5;entryY=1;entryDx=0;entryDy=0;exitX=0.5;exitY=0;exitDx=0;exitDy=0;" parent="oynfDBJYEfXgy_UC3kl--1" source="XHgv0kynWW9dPsfrW4lC-18" target="XHgv0kynWW9dPsfrW4lC-15" edge="1">
                    <mxGeometry width="160" relative="1" as="geometry">
                        <mxPoint x="390" y="320" as="sourcePoint"/>
                        <mxPoint x="550" y="320" as="targetPoint"/>
                    </mxGeometry>
                </mxCell>
                <mxCell id="XHgv0kynWW9dPsfrW4lC-24" value="&amp;lt;&amp;lt;extend&amp;gt;&amp;gt;" style="html=1;verticalAlign=bottom;labelBackgroundColor=none;endArrow=open;endFill=0;dashed=1;entryX=0.5;entryY=1;entryDx=0;entryDy=0;exitX=0.5;exitY=0;exitDx=0;exitDy=0;" parent="oynfDBJYEfXgy_UC3kl--1" source="XHgv0kynWW9dPsfrW4lC-18" target="XHgv0kynWW9dPsfrW4lC-14" edge="1">
                    <mxGeometry width="160" relative="1" as="geometry">
                        <mxPoint x="630" y="120" as="sourcePoint"/>
                        <mxPoint x="670" y="80" as="targetPoint"/>
                    </mxGeometry>
                </mxCell>
                <mxCell id="XHgv0kynWW9dPsfrW4lC-25" value="&amp;lt;&amp;lt;extend&amp;gt;&amp;gt;" style="html=1;verticalAlign=bottom;labelBackgroundColor=none;endArrow=open;endFill=0;dashed=1;exitX=0.5;exitY=0;exitDx=0;exitDy=0;entryX=0.75;entryY=0;entryDx=0;entryDy=0;" parent="oynfDBJYEfXgy_UC3kl--1" source="XHgv0kynWW9dPsfrW4lC-14" target="XHgv0kynWW9dPsfrW4lC-31" edge="1">
                    <mxGeometry width="160" relative="1" as="geometry">
                        <mxPoint x="630" y="120" as="sourcePoint"/>
                        <mxPoint x="440" y="70" as="targetPoint"/>
                    </mxGeometry>
                </mxCell>
                <mxCell id="XHgv0kynWW9dPsfrW4lC-26" value="Guest" style="ellipse;whiteSpace=wrap;html=1;" parent="oynfDBJYEfXgy_UC3kl--1" vertex="1">
                    <mxGeometry x="190" y="40" width="80" height="30" as="geometry"/>
                </mxCell>
                <mxCell id="XHgv0kynWW9dPsfrW4lC-27" value="&amp;lt;&amp;lt;extend&amp;gt;&amp;gt;" style="html=1;verticalAlign=bottom;labelBackgroundColor=none;endArrow=open;endFill=0;dashed=1;" parent="oynfDBJYEfXgy_UC3kl--1" target="XHgv0kynWW9dPsfrW4lC-31" edge="1">
                    <mxGeometry width="160" relative="1" as="geometry">
                        <mxPoint x="230" y="39" as="sourcePoint"/>
                        <mxPoint x="390" y="39" as="targetPoint"/>
                        <Array as="points">
                            <mxPoint x="320" y="30"/>
                        </Array>
                    </mxGeometry>
                </mxCell>
                <mxCell id="XHgv0kynWW9dPsfrW4lC-30" value="" style="shape=ellipse;container=1;horizontal=1;horizontalStack=0;resizeParent=1;resizeParentMax=0;resizeLast=0;html=1;dashed=0;collapsible=0;fillColor=none;" parent="oynfDBJYEfXgy_UC3kl--1" vertex="1">
                    <mxGeometry x="290" y="60" width="160" height="90" as="geometry"/>
                </mxCell>
                <mxCell id="XHgv0kynWW9dPsfrW4lC-31" value="Open App" style="html=1;strokeColor=none;fillColor=none;align=center;verticalAlign=middle;rotatable=0;" parent="XHgv0kynWW9dPsfrW4lC-30" vertex="1">
                    <mxGeometry width="160" height="22.5" as="geometry"/>
                </mxCell>
                <mxCell id="XHgv0kynWW9dPsfrW4lC-32" value="" style="line;strokeWidth=1;fillColor=none;rotatable=0;labelPosition=right;points=[];portConstraint=eastwest;dashed=0;resizeWidth=1;" parent="XHgv0kynWW9dPsfrW4lC-30" vertex="1">
                    <mxGeometry x="8" y="22.5" width="144" height="7.5" as="geometry"/>
                </mxCell>
                <mxCell id="XHgv0kynWW9dPsfrW4lC-33" value="extension points" style="text;html=1;align=center;verticalAlign=middle;rotatable=0;" parent="XHgv0kynWW9dPsfrW4lC-30" vertex="1">
                    <mxGeometry y="30" width="160" height="22.5" as="geometry"/>
                </mxCell>
                <mxCell id="XHgv0kynWW9dPsfrW4lC-34" value="Login&amp;nbsp;&lt;br&gt;Sign-Up&lt;br&gt;Continue as Guest" style="text;html=1;align=left;verticalAlign=middle;rotatable=0;spacingLeft=25;" parent="XHgv0kynWW9dPsfrW4lC-30" vertex="1">
                    <mxGeometry y="52.5" width="160" height="22.5" as="geometry"/>
                </mxCell>
                <mxCell id="XHgv0kynWW9dPsfrW4lC-48" value="Update Stock" style="ellipse;whiteSpace=wrap;html=1;" parent="oynfDBJYEfXgy_UC3kl--1" vertex="1">
                    <mxGeometry x="325" y="692.96" width="100" height="50" as="geometry"/>
                </mxCell>
                <mxCell id="XHgv0kynWW9dPsfrW4lC-49" value="" style="endArrow=none;startArrow=none;endFill=0;startFill=0;endSize=8;html=1;verticalAlign=bottom;labelBackgroundColor=none;strokeWidth=3;exitX=1;exitY=0.5;exitDx=0;exitDy=0;" parent="oynfDBJYEfXgy_UC3kl--1" source="XHgv0kynWW9dPsfrW4lC-48" edge="1">
                    <mxGeometry width="160" relative="1" as="geometry">
                        <mxPoint x="460" y="270" as="sourcePoint"/>
                        <mxPoint x="800" y="260" as="targetPoint"/>
                        <Array as="points">
                            <mxPoint x="640" y="780"/>
                        </Array>
                    </mxGeometry>
                </mxCell>
                <mxCell id="XHgv0kynWW9dPsfrW4lC-50" value="" style="endArrow=none;startArrow=none;endFill=0;startFill=0;endSize=8;html=1;verticalAlign=bottom;labelBackgroundColor=none;strokeWidth=3;exitX=0.963;exitY=0.36;exitDx=0;exitDy=0;exitPerimeter=0;" parent="oynfDBJYEfXgy_UC3kl--1" source="YP_LOq2j_jBv8buRigSV-22" edge="1">
                    <mxGeometry width="160" relative="1" as="geometry">
                        <mxPoint x="450" y="285" as="sourcePoint"/>
                        <mxPoint x="800" y="260" as="targetPoint"/>
                    </mxGeometry>
                </mxCell>
                <mxCell id="XHgv0kynWW9dPsfrW4lC-52" value="" style="endArrow=none;startArrow=none;endFill=0;startFill=0;endSize=8;html=1;verticalAlign=bottom;labelBackgroundColor=none;strokeWidth=3;exitX=1;exitY=0.3333333333333333;exitDx=0;exitDy=0;exitPerimeter=0;entryX=0;entryY=0;entryDx=0;entryDy=0;" parent="oynfDBJYEfXgy_UC3kl--1" source="oynfDBJYEfXgy_UC3kl--2" target="XHgv0kynWW9dPsfrW4lC-34" edge="1">
                    <mxGeometry width="160" relative="1" as="geometry">
                        <mxPoint x="230" y="200" as="sourcePoint"/>
                        <mxPoint x="530" y="132.5" as="targetPoint"/>
                    </mxGeometry>
                </mxCell>
                <mxCell id="XHgv0kynWW9dPsfrW4lC-53" value="" style="endArrow=none;startArrow=none;endFill=0;startFill=0;endSize=8;html=1;verticalAlign=bottom;labelBackgroundColor=none;strokeWidth=3;exitX=1;exitY=0.3333333333333333;exitDx=0;exitDy=0;exitPerimeter=0;entryX=0.009;entryY=0.36;entryDx=0;entryDy=0;entryPerimeter=0;" parent="oynfDBJYEfXgy_UC3kl--1" source="oynfDBJYEfXgy_UC3kl--2" target="YP_LOq2j_jBv8buRigSV-22" edge="1">
                    <mxGeometry width="160" relative="1" as="geometry">
                        <mxPoint x="230" y="280" as="sourcePoint"/>
                        <mxPoint x="310" y="270" as="targetPoint"/>
                    </mxGeometry>
                </mxCell>
                <mxCell id="XHgv0kynWW9dPsfrW4lC-56" value="" style="endArrow=none;startArrow=none;endFill=0;startFill=0;endSize=8;html=1;verticalAlign=bottom;labelBackgroundColor=none;strokeWidth=3;exitX=1;exitY=0.5;exitDx=0;exitDy=0;entryX=0;entryY=0.3333333333333333;entryDx=0;entryDy=0;entryPerimeter=0;" parent="oynfDBJYEfXgy_UC3kl--1" source="XHgv0kynWW9dPsfrW4lC-9" target="oynfDBJYEfXgy_UC3kl--5" edge="1">
                    <mxGeometry width="160" relative="1" as="geometry">
                        <mxPoint x="460" y="597.5" as="sourcePoint"/>
                        <mxPoint x="810" y="270" as="targetPoint"/>
                        <Array as="points">
                            <mxPoint x="660" y="800"/>
                        </Array>
                    </mxGeometry>
                </mxCell>
                <mxCell id="XHgv0kynWW9dPsfrW4lC-58" value="&amp;lt;&amp;lt;include&amp;gt;&amp;gt;" style="html=1;verticalAlign=bottom;labelBackgroundColor=none;endArrow=open;endFill=0;dashed=1;exitX=0.5;exitY=1;exitDx=0;exitDy=0;entryX=0.5;entryY=0;entryDx=0;entryDy=0;" parent="oynfDBJYEfXgy_UC3kl--1" source="YP_LOq2j_jBv8buRigSV-7" target="oynfDBJYEfXgy_UC3kl--12" edge="1">
                    <mxGeometry width="160" relative="1" as="geometry">
                        <mxPoint x="200" y="622.96" as="sourcePoint"/>
                        <mxPoint x="228" y="660" as="targetPoint"/>
                    </mxGeometry>
                </mxCell>
                <mxCell id="YP_LOq2j_jBv8buRigSV-7" value="" style="shape=ellipse;container=1;horizontal=1;horizontalStack=0;resizeParent=1;resizeParentMax=0;resizeLast=0;html=1;dashed=0;collapsible=0;" vertex="1" parent="oynfDBJYEfXgy_UC3kl--1">
                    <mxGeometry x="270" y="350" width="180" height="120" as="geometry"/>
                </mxCell>
                <mxCell id="YP_LOq2j_jBv8buRigSV-8" value="Returning Customer" style="html=1;strokeColor=none;fillColor=none;align=center;verticalAlign=middle;rotatable=0;" vertex="1" parent="YP_LOq2j_jBv8buRigSV-7">
                    <mxGeometry width="180" height="30" as="geometry"/>
                </mxCell>
                <mxCell id="YP_LOq2j_jBv8buRigSV-9" value="" style="line;strokeWidth=1;fillColor=none;rotatable=0;labelPosition=right;points=[];portConstraint=eastwest;dashed=0;resizeWidth=1;" vertex="1" parent="YP_LOq2j_jBv8buRigSV-7">
                    <mxGeometry x="9" y="30" width="162" height="10" as="geometry"/>
                </mxCell>
                <mxCell id="YP_LOq2j_jBv8buRigSV-11" value="Recurring order/One-Time&lt;br&gt;Payment Structure" style="text;html=1;align=left;verticalAlign=middle;rotatable=0;spacingLeft=25;" vertex="1" parent="YP_LOq2j_jBv8buRigSV-7">
                    <mxGeometry y="45" width="180" height="30" as="geometry"/>
                </mxCell>
                <mxCell id="YP_LOq2j_jBv8buRigSV-12" value="" style="shape=ellipse;container=1;horizontal=1;horizontalStack=0;resizeParent=1;resizeParentMax=0;resizeLast=0;html=1;dashed=0;collapsible=0;" vertex="1" parent="oynfDBJYEfXgy_UC3kl--1">
                    <mxGeometry x="510" y="330" width="180" height="120" as="geometry"/>
                </mxCell>
                <mxCell id="YP_LOq2j_jBv8buRigSV-13" value="New Customer" style="html=1;strokeColor=none;fillColor=none;align=center;verticalAlign=middle;rotatable=0;" vertex="1" parent="YP_LOq2j_jBv8buRigSV-12">
                    <mxGeometry width="180" height="30" as="geometry"/>
                </mxCell>
                <mxCell id="YP_LOq2j_jBv8buRigSV-14" value="" style="line;strokeWidth=1;fillColor=none;rotatable=0;labelPosition=right;points=[];portConstraint=eastwest;dashed=0;resizeWidth=1;" vertex="1" parent="YP_LOq2j_jBv8buRigSV-12">
                    <mxGeometry x="9" y="30" width="162" height="10" as="geometry"/>
                </mxCell>
                <mxCell id="YP_LOq2j_jBv8buRigSV-16" value="Sign-up&lt;br&gt;Order Information&lt;br&gt;Shipping &amp;amp; Handling&lt;br&gt;Payment Information&lt;br&gt;Payment Structure" style="text;html=1;align=left;verticalAlign=middle;rotatable=0;spacingLeft=25;" vertex="1" parent="YP_LOq2j_jBv8buRigSV-12">
                    <mxGeometry y="60" width="180" height="30" as="geometry"/>
                </mxCell>
                <mxCell id="YP_LOq2j_jBv8buRigSV-22" value="Purchase Order" style="ellipse;whiteSpace=wrap;html=1;" vertex="1" parent="oynfDBJYEfXgy_UC3kl--1">
                    <mxGeometry x="342" y="200" width="108" height="50" as="geometry"/>
                </mxCell>
                <mxCell id="YP_LOq2j_jBv8buRigSV-23" value="Send Receipt&amp;nbsp;" style="ellipse;whiteSpace=wrap;html=1;" vertex="1" parent="oynfDBJYEfXgy_UC3kl--1">
                    <mxGeometry x="317.5" y="810" width="122.5" height="55" as="geometry"/>
                </mxCell>
                <mxCell id="YP_LOq2j_jBv8buRigSV-24" value="" style="endArrow=none;startArrow=none;endFill=0;startFill=0;endSize=8;html=1;verticalAlign=bottom;labelBackgroundColor=none;strokeWidth=3;exitX=1;exitY=0.5;exitDx=0;exitDy=0;entryX=0;entryY=0.3333333333333333;entryDx=0;entryDy=0;entryPerimeter=0;" edge="1" parent="oynfDBJYEfXgy_UC3kl--1" source="YP_LOq2j_jBv8buRigSV-23" target="oynfDBJYEfXgy_UC3kl--5">
                    <mxGeometry width="160" relative="1" as="geometry">
                        <mxPoint x="450" y="827.5" as="sourcePoint"/>
                        <mxPoint x="810" y="270" as="targetPoint"/>
                        <Array as="points">
                            <mxPoint x="670" y="860"/>
                        </Array>
                    </mxGeometry>
                </mxCell>
                <mxCell id="YP_LOq2j_jBv8buRigSV-25" value="Request Tracking" style="ellipse;whiteSpace=wrap;html=1;" vertex="1" parent="oynfDBJYEfXgy_UC3kl--1">
                    <mxGeometry x="320" y="870" width="122.5" height="55" as="geometry"/>
                </mxCell>
                <mxCell id="YP_LOq2j_jBv8buRigSV-26" value="Send Tracking" style="ellipse;whiteSpace=wrap;html=1;" vertex="1" parent="oynfDBJYEfXgy_UC3kl--1">
                    <mxGeometry x="320" y="930" width="122.5" height="55" as="geometry"/>
                </mxCell>
                <mxCell id="YP_LOq2j_jBv8buRigSV-27" value="" style="endArrow=none;startArrow=none;endFill=0;startFill=0;endSize=8;html=1;verticalAlign=bottom;labelBackgroundColor=none;strokeWidth=3;exitX=1;exitY=0.5;exitDx=0;exitDy=0;entryX=0;entryY=0.3333333333333333;entryDx=0;entryDy=0;entryPerimeter=0;" edge="1" parent="oynfDBJYEfXgy_UC3kl--1" source="YP_LOq2j_jBv8buRigSV-26" target="oynfDBJYEfXgy_UC3kl--5">
                    <mxGeometry width="160" relative="1" as="geometry">
                        <mxPoint x="450" y="847.5" as="sourcePoint"/>
                        <mxPoint x="810" y="270" as="targetPoint"/>
                        <Array as="points">
                            <mxPoint x="680" y="870"/>
                        </Array>
                    </mxGeometry>
                </mxCell>
                <mxCell id="YP_LOq2j_jBv8buRigSV-28" value="" style="endArrow=none;startArrow=none;endFill=0;startFill=0;endSize=8;html=1;verticalAlign=bottom;labelBackgroundColor=none;strokeWidth=3;exitX=1;exitY=0.3333333333333333;exitDx=0;exitDy=0;exitPerimeter=0;entryX=0;entryY=0.5;entryDx=0;entryDy=0;" edge="1" parent="oynfDBJYEfXgy_UC3kl--1" source="oynfDBJYEfXgy_UC3kl--2" target="YP_LOq2j_jBv8buRigSV-25">
                    <mxGeometry width="160" relative="1" as="geometry">
                        <mxPoint x="160" y="255" as="sourcePoint"/>
                        <mxPoint x="170" y="830" as="targetPoint"/>
                        <Array as="points">
                            <mxPoint x="100" y="830"/>
                        </Array>
                    </mxGeometry>
                </mxCell>
                <mxCell id="YP_LOq2j_jBv8buRigSV-33" value="Payment Structure" style="ellipse;whiteSpace=wrap;html=1;" vertex="1" parent="oynfDBJYEfXgy_UC3kl--1">
                    <mxGeometry x="295" y="520" width="130" height="40" as="geometry"/>
                </mxCell>
                <mxCell id="YP_LOq2j_jBv8buRigSV-34" value="&amp;lt;&amp;lt;include&amp;gt;&amp;gt;" style="html=1;verticalAlign=bottom;labelBackgroundColor=none;endArrow=open;endFill=0;dashed=1;exitX=0.5;exitY=1;exitDx=0;exitDy=0;entryX=0.5;entryY=0;entryDx=0;entryDy=0;" edge="1" parent="oynfDBJYEfXgy_UC3kl--1" source="YP_LOq2j_jBv8buRigSV-7" target="YP_LOq2j_jBv8buRigSV-33">
                    <mxGeometry width="160" relative="1" as="geometry">
                        <mxPoint x="385" y="470" as="sourcePoint"/>
                        <mxPoint x="240" y="540" as="targetPoint"/>
                    </mxGeometry>
                </mxCell>
                <mxCell id="YP_LOq2j_jBv8buRigSV-36" value="&amp;lt;&amp;lt;extend&amp;gt;&amp;gt;" style="html=1;verticalAlign=bottom;labelBackgroundColor=none;endArrow=open;endFill=0;dashed=1;exitX=0.5;exitY=0;exitDx=0;exitDy=0;entryX=0;entryY=1;entryDx=0;entryDy=0;" edge="1" parent="oynfDBJYEfXgy_UC3kl--1" source="YP_LOq2j_jBv8buRigSV-8" target="YP_LOq2j_jBv8buRigSV-22">
                    <mxGeometry width="160" relative="1" as="geometry">
                        <mxPoint x="376" y="335" as="sourcePoint"/>
                        <mxPoint x="416" y="285" as="targetPoint"/>
                        <Array as="points"/>
                    </mxGeometry>
                </mxCell>
                <mxCell id="YP_LOq2j_jBv8buRigSV-37" value="&amp;lt;&amp;lt;extend&amp;gt;&amp;gt;" style="html=1;verticalAlign=bottom;labelBackgroundColor=none;endArrow=open;endFill=0;dashed=1;exitX=0.5;exitY=0;exitDx=0;exitDy=0;entryX=1;entryY=1;entryDx=0;entryDy=0;" edge="1" parent="oynfDBJYEfXgy_UC3kl--1" source="YP_LOq2j_jBv8buRigSV-13" target="YP_LOq2j_jBv8buRigSV-22">
                    <mxGeometry width="160" relative="1" as="geometry">
                        <mxPoint x="435" y="345" as="sourcePoint"/>
                        <mxPoint x="475" y="295" as="targetPoint"/>
                        <Array as="points"/>
                    </mxGeometry>
                </mxCell>
            </root>
        </mxGraphModel>
    </diagram>
</mxfile>